<svg width="32" height="32" viewBox="0 0 32 32" fill="none" xmlns="http://www.w3.org/2000/svg">
<path opacity="0.85" fill-rule="evenodd" clip-rule="evenodd" d="M27.4 4.6C27 4.2 26.5333 4 26 4H6C5.46667 4 5 4.2 4.6 4.6C4.2 5 4 5.46667 4 6V26C4 26.5333 4.2 27 4.6 27.4C5 27.8 5.46667 28 6 28H26C26.5333 28 27 27.8 27.4 27.4C27.8 27 28 26.5333 28 26V6C28 5.46667 27.8 5 27.4 4.6ZM18.12 22.4133C17.9333 22.6 17.6933 22.7 17.4 22.7H10.2333C9.94667 22.7 9.70667 22.6067 9.52 22.4133C9.33333 22.2267 9.23333 21.9867 9.23333 21.7C9.23333 21.4133 9.32667 21.1733 9.52 20.9867C9.70667 20.8 9.94667 20.7 10.2333 20.7H17.4C17.6867 20.7 17.9267 20.7933 18.12 20.9867C18.3067 21.1733 18.4 21.4133 18.4 21.7C18.4 21.9867 18.3067 22.2267 18.12 22.4133ZM22.4867 16.7133C22.3 16.9 22.06 17 21.7733 17H10.2333C9.94667 17 9.70667 16.9067 9.52 16.7133C9.33333 16.52 9.23333 16.2867 9.23333 16C9.23333 15.7133 9.32667 15.4733 9.52 15.2867C9.70667 15.1 9.94667 15 10.2333 15H21.7667C22.0533 15 22.2933 15.0933 22.48 15.2867C22.6667 15.4733 22.7667 15.7133 22.7667 16C22.7667 16.2867 22.6733 16.5267 22.48 16.7133H22.4867ZM22.4867 11.0133C22.3 11.2 22.06 11.3 21.7733 11.3H10.2333C9.94667 11.3 9.70667 11.2067 9.52 11.0133C9.33333 10.8267 9.23333 10.5867 9.23333 10.3C9.23333 10.0133 9.32667 9.77333 9.52 9.58667C9.71333 9.4 9.94667 9.3 10.2333 9.3H21.7667C22.0533 9.3 22.2933 9.39333 22.48 9.58667C22.6667 9.77333 22.7667 10.0133 22.7667 10.3C22.7667 10.5867 22.6733 10.8267 22.48 11.0133H22.4867Z" fill="#25CBDB"/>
<g opacity="0.2">
<path d="M17.4 20.7H10.2333C9.94667 20.7 9.70667 20.7933 9.52 20.9867C9.33334 21.1733 9.23334 21.4133 9.23334 21.7C9.23334 21.9867 9.32667 22.2267 9.52 22.4133C9.70667 22.6 9.94667 22.7 10.2333 22.7H17.4C17.6867 22.7 17.9267 22.6067 18.12 22.4133C18.3133 22.22 18.4 21.9867 18.4 21.7C18.4 21.4133 18.3067 21.1733 18.12 20.9867C17.9333 20.8 17.6933 20.7 17.4 20.7Z" fill="#25CBDB"/>
<path d="M21.7667 15H10.2333C9.94667 15 9.70667 15.0933 9.52 15.2867C9.33334 15.4733 9.23334 15.7133 9.23334 16C9.23334 16.2867 9.32667 16.5267 9.52 16.7133C9.71334 16.9 9.94667 17 10.2333 17H21.7667C22.0533 17 22.2933 16.9067 22.48 16.7133C22.6667 16.5267 22.7667 16.2867 22.7667 16C22.7667 15.7133 22.6733 15.4733 22.48 15.2867C22.2933 15.1 22.0533 15 21.7667 15Z" fill="#25CBDB"/>
<path d="M21.7667 9.29999H10.2333C9.94667 9.29999 9.70667 9.39332 9.52 9.58665C9.33334 9.77999 9.23334 10.0133 9.23334 10.3C9.23334 10.5867 9.32667 10.8267 9.52 11.0133C9.70667 11.2 9.94667 11.3 10.2333 11.3H21.7667C22.0533 11.3 22.2933 11.2067 22.48 11.0133C22.6667 10.8267 22.7667 10.5867 22.7667 10.3C22.7667 10.0133 22.6733 9.77332 22.48 9.58665C22.2933 9.39999 22.0533 9.29999 21.7667 9.29999Z" fill="#25CBDB"/>
</g>
</svg>
