<svg width="32" height="32" viewBox="0 0 32 32" fill="none" xmlns="http://www.w3.org/2000/svg">
<path opacity="0.85" fill-rule="evenodd" clip-rule="evenodd" d="M28.0734 7.49999L16.74 2.96666C16.26 2.77332 15.7334 2.77332 15.2534 2.96666L3.92669 7.49999C3.16669 7.80666 2.66669 8.53999 2.66669 9.35999V9.67332C2.66669 10.2267 3.11335 10.6733 3.66669 10.6733H6V26H3.66669C3.1144 26 2.66669 26.4477 2.66669 27C2.66669 27.5523 3.1144 28 3.66669 28H28.3334C28.8856 28 29.3334 27.5523 29.3334 27C29.3334 26.4477 28.8856 26 28.3334 26H26V10.6733H28.3334C28.8867 10.6733 29.3334 10.2267 29.3334 9.67332V9.35999C29.3334 8.53999 28.8334 7.80666 28.0734 7.49999ZM23.3334 26V10.6733H17.3334V26H23.3334ZM14.6667 26V10.6733H8.66667V26H14.6667Z" fill="#222343"/>
<path d="M8.00002 12.6666H6.66669C5.56002 12.6666 4.66669 11.7733 4.66669 10.6666H10C10 11.7733 9.10669 12.6666 8.00002 12.6666Z" fill="#222343"/>
<path d="M16.6667 12.6666H15.3333C14.2267 12.6666 13.3333 11.7733 13.3333 10.6666H18.6667C18.6667 11.7733 17.7733 12.6666 16.6667 12.6666Z" fill="#222343"/>
<path d="M6.66669 24H8.00002C9.10669 24 10 24.8933 10 26H4.66669C4.66669 24.8933 5.56002 24 6.66669 24Z" fill="#222343"/>
<path d="M15.3334 24H16.6667C17.7734 24 18.6667 24.8933 18.6667 26H13.3334C13.3334 24.8933 14.2267 24 15.3334 24Z" fill="#222343"/>
<path d="M22 10.6667H27.3334C27.3334 11.7733 26.44 12.6667 25.3334 12.6667H24C22.8934 12.6667 22 11.7733 22 10.6667Z" fill="#222343"/>
<path d="M24 24H25.3334C26.44 24 27.3334 24.8933 27.3334 26H22C22 24.8933 22.8934 24 24 24Z" fill="#222343"/>
</svg>
