<svg width="32" height="32" viewBox="0 0 32 32" fill="none" xmlns="http://www.w3.org/2000/svg">
<path opacity="0.32" d="M30 4H2C0.89543 4 0 4.89543 0 6V26C0 27.1046 0.89543 28 2 28H30C31.1046 28 32 27.1046 32 26V6C32 4.89543 31.1046 4 30 4Z" fill="#222343"/>
<path d="M13.7667 17.2C13.0133 17.9533 12.08 18.3333 10.9667 18.3333C9.85333 18.3333 8.91999 17.9533 8.16666 17.2C7.41333 16.4467 7.03333 15.5133 7.03333 14.4C7.03333 13.2867 7.41333 12.3533 8.16666 11.6C8.91999 10.8467 9.85333 10.4667 10.9667 10.4667C12.08 10.4667 13.0133 10.8467 13.7667 11.6C14.52 12.3533 14.9 13.2867 14.9 14.4C14.9 15.5133 14.52 16.4467 13.7667 17.2Z" fill="#222343"/>
<path d="M19.6333 26H2.29999C3.27999 24.3533 4.51999 23.1133 6.03332 22.2667C7.54665 21.42 9.18666 21 10.9667 21C12.7467 21 14.3867 21.42 15.8867 22.2667C17.3867 23.1133 18.6333 24.3533 19.6333 26Z" fill="#222343"/>
<path fill-rule="evenodd" clip-rule="evenodd" d="M27.3867 8.61331C27.2 8.42665 26.96 8.33331 26.6667 8.33331H19.7333C19.4467 8.33331 19.2067 8.42665 19.0133 8.61331C18.8267 8.79998 18.7333 9.03998 18.7333 9.33331V13.5333C18.7333 13.82 18.8267 14.06 19.0133 14.2533C19.2 14.44 19.44 14.5333 19.7333 14.5333H26.6667C26.9533 14.5333 27.1933 14.44 27.3867 14.2533C27.5733 14.0666 27.6667 13.8266 27.6667 13.5333V9.33331C27.6667 9.04665 27.5733 8.80665 27.3867 8.61331ZM26.6667 10.6666L23.2333 13.3L19.7333 10.6666V9.33331L23.2 11.9666L26.6667 9.33331V10.6666Z" fill="#222343"/>
<path opacity="0.85" d="M30 6V26H2V6H30ZM30 4H2C0.893333 4 0 4.89333 0 6V26C0 27.1067 0.893333 28 2 28H30C31.1067 28 32 27.1067 32 26V6C32 4.89333 31.1067 4 30 4Z" fill="#222343"/>
</svg>
