<svg width="32" height="32" viewBox="0 0 32 32" fill="none" xmlns="http://www.w3.org/2000/svg">
<path opacity="0.85" fill-rule="evenodd" clip-rule="evenodd" d="M21.9466 10.8C20.84 10.8 19.9466 9.90663 19.9466 8.79996V3.25329C19.5733 2.87996 19.06 2.66663 18.5333 2.66663H7.33331C6.22665 2.66663 5.33331 3.55996 5.33331 4.66663V27.3333C5.33331 28.44 6.22665 29.3333 7.33331 29.3333H24.6666C25.7733 29.3333 26.6666 28.44 26.6666 27.3333V10.8H21.9466ZM21.08 23.38C20.8933 23.5666 20.6533 23.66 20.36 23.66H11.6266C11.34 23.66 11.1 23.5666 10.9066 23.38C10.72 23.1933 10.6266 22.9533 10.6266 22.66C10.6266 22.3666 10.72 22.1333 10.9066 21.9466C11.0933 21.76 11.3333 21.66 11.6266 21.66H20.36C20.6466 21.66 20.8866 21.7533 21.08 21.9466C21.2666 22.1333 21.36 22.3733 21.36 22.66C21.36 22.9466 21.2666 23.1866 21.08 23.38ZM21.08 17.7133C20.8933 17.9 20.6533 17.9933 20.36 17.9933H11.6266C11.34 17.9933 11.1 17.9 10.9066 17.7133C10.72 17.5266 10.6266 17.2866 10.6266 16.9933C10.6266 16.7 10.72 16.4666 10.9066 16.28C11.0933 16.0933 11.3333 15.9933 11.6266 15.9933H20.36C20.6466 15.9933 20.8866 16.0866 21.08 16.28C21.2666 16.4666 21.36 16.7066 21.36 16.9933C21.36 17.28 21.2666 17.52 21.08 17.7133Z" fill="#222343"/>
<path d="M19.9467 7.3866V8.79993C19.9467 9.9066 20.84 10.7999 21.9467 10.7999H26.6667C26.6667 10.2666 26.4533 9.75993 26.08 9.3866H21.9467C20.84 9.3866 19.9467 8.49326 19.9467 7.3866Z" fill="#222343"/>
<path opacity="0.32" d="M21.9467 9.38663H26.08L19.9467 3.2533V7.38663C19.9467 8.4933 20.84 9.38663 21.9467 9.38663Z" fill="#222343"/>
<g opacity="0.2">
<path d="M20.3667 21.6667H11.6334C11.3467 21.6667 11.1067 21.76 10.9134 21.9533C10.7267 22.14 10.6334 22.38 10.6334 22.6667C10.6334 22.9533 10.7267 23.1933 10.9134 23.3867C11.1 23.5733 11.34 23.6667 11.6334 23.6667H20.3667C20.6534 23.6667 20.8934 23.5733 21.0867 23.3867C21.2734 23.2 21.3667 22.96 21.3667 22.6667C21.3667 22.3733 21.2734 22.14 21.0867 21.9533C20.9 21.7667 20.66 21.6667 20.3667 21.6667Z" fill="#222343"/>
<path d="M20.3667 16H11.6334C11.3467 16 11.1067 16.0933 10.9134 16.2867C10.7267 16.4733 10.6334 16.7133 10.6334 17C10.6334 17.2867 10.7267 17.5267 10.9134 17.72C11.1 17.9067 11.34 18 11.6334 18H20.3667C20.6534 18 20.8934 17.9067 21.0867 17.72C21.2734 17.5333 21.3667 17.2933 21.3667 17C21.3667 16.7067 21.2734 16.4733 21.0867 16.2867C20.9 16.1 20.66 16 20.3667 16Z" fill="#222343"/>
</g>
</svg>
