<svg width="32" height="32" viewBox="0 0 32 32" fill="none" xmlns="http://www.w3.org/2000/svg">
<path opacity="0.52" d="M27.22 27.9333H4.66669C3.56002 27.9333 2.66669 27.04 2.66669 25.9333V12.6C2.66669 13.36 3.08669 14.02 3.71335 14.36L14.9934 20.88C14.9934 20.88 15.0067 20.8866 15.0134 20.8933L16 21.46L27.22 27.9333Z" fill="#222343"/>
<path opacity="0.85" d="M29.3334 12.6V25.9333C29.3334 27.04 28.4334 27.9333 27.3334 27.9333H27.22L16 21.46L15.0134 20.8933C15.6267 21.24 16.3867 21.2333 17 20.88L28.2867 14.36C28.9134 14.02 29.3334 13.36 29.3334 12.6Z" fill="#222343"/>
<path opacity="0.32" d="M26.6667 8.80675V15.3001L17 20.8867C16.3867 21.2401 15.6267 21.2467 15.0134 20.9001C15.0067 20.8934 15 20.8934 14.9934 20.8867L5.33337 15.3001V8.80675C5.33337 7.62675 6.29337 6.66675 7.47337 6.66675H24.5267C25.7067 6.66675 26.6667 7.62675 26.6667 8.80675Z" fill="#222343"/>
<path d="M3.73335 10.8334L5.33335 9.91336V15.3L3.71335 14.3667C3.08669 14.0267 2.66669 13.3667 2.66669 12.6067C2.66669 11.92 3.01335 11.3067 3.54669 10.9467C3.60669 10.9067 3.67335 10.8667 3.73335 10.8334Z" fill="#222343"/>
<path d="M16.9934 4.33336L21.04 6.66669H10.9534L15 4.33336C15.6134 3.98003 16.38 3.98003 16.9934 4.33336Z" fill="#222343"/>
<path d="M29.3334 12.6067C29.3334 13.3667 28.9134 14.0267 28.2867 14.3667L26.6667 15.3V9.91336L28.26 10.8334C28.3267 10.8667 28.3934 10.9067 28.4534 10.9467C28.98 11.3067 29.3334 11.92 29.3334 12.6067Z" fill="#222343"/>
<path d="M10.3 13.7H15C15.2867 13.7 15.5267 13.7933 15.72 13.98C15.9067 14.1666 16 14.4066 16 14.7C16 14.9933 15.9067 15.2266 15.72 15.4133C15.5333 15.6 15.2933 15.7 15 15.7H10.3C10.0133 15.7 9.77332 15.6066 9.58665 15.4133C9.39999 15.2266 9.29999 14.9866 9.29999 14.7C9.29999 14.4133 9.39332 14.1733 9.58665 13.98C9.77332 13.7933 10.0133 13.7 10.3 13.6933V13.7Z" fill="#222343"/>
<path d="M10.3 9.69995H21.7C21.9867 9.69995 22.2267 9.79328 22.42 9.97995C22.6067 10.1666 22.7 10.4066 22.7 10.7C22.7 10.9933 22.6067 11.2266 22.42 11.42C22.2333 11.6066 21.9933 11.7 21.7 11.7H10.3C10.0133 11.7 9.77332 11.6066 9.58665 11.42C9.39999 11.2333 9.30665 10.9933 9.29999 10.7C9.29999 10.4133 9.39332 10.1733 9.58665 9.97995C9.77332 9.79328 10.0133 9.69995 10.3067 9.69995H10.3Z" fill="#222343"/>
</svg>
