<svg width="32" height="32" viewBox="0 0 32 32" fill="none" xmlns="http://www.w3.org/2000/svg">
<g opacity="0.85">
<path d="M15.9934 13.22C14.46 13.22 13.22 14.4666 13.22 16C13.22 17.5333 14.4667 18.7733 16 18.7733C17.5334 18.7733 18.7734 17.5266 18.7734 15.9933C18.7734 14.46 17.5267 13.22 15.9934 13.22Z" fill="#25CBDB"/>
<path d="M22.7733 12.62C22.7333 11.8067 22.6 11.3667 22.4867 11.0733C22.3333 10.6867 22.1533 10.4067 21.86 10.1133C21.5667 9.82001 21.2933 9.64001 20.9 9.49335C20.6067 9.38001 20.1667 9.24668 19.3533 9.20668C18.4733 9.16668 18.2133 9.16001 15.9867 9.16668C13.76 9.16668 13.5 9.18001 12.62 9.22001C11.8067 9.26001 11.3667 9.39335 11.0733 9.50668C10.6867 9.66001 10.4067 9.84001 10.1133 10.1333C9.82001 10.4267 9.64001 10.7 9.49335 11.0933C9.38001 11.3867 9.24668 11.8267 9.20668 12.64C9.16668 13.52 9.16001 13.78 9.16668 16.0067C9.16668 18.2333 9.18001 18.4933 9.22001 19.3733C9.26001 20.1867 9.39335 20.6267 9.50668 20.92C9.66001 21.3067 9.84001 21.5867 10.1333 21.88C10.4267 22.1733 10.7067 22.3533 11.0933 22.5C11.3867 22.6133 11.8267 22.7467 12.64 22.7867C13.52 22.8267 13.78 22.8333 16.0067 22.8267C18.2333 22.8267 18.4933 22.8133 19.3733 22.7733C20.1867 22.7333 20.6267 22.6 20.92 22.4867C21.3067 22.3333 21.5867 22.1533 21.88 21.86C22.1733 21.5667 22.3533 21.2867 22.5 20.9C22.6133 20.6067 22.7467 20.1667 22.7867 19.3533C22.8267 18.4733 22.8333 18.2133 22.8267 15.9867C22.8267 13.76 22.8133 13.5 22.7733 12.62ZM16.0067 20.28C13.6467 20.28 11.7267 18.3733 11.72 16.0067C11.72 13.6467 13.6267 11.7267 15.9933 11.72C18.3533 11.72 20.2733 13.6267 20.28 15.9933C20.28 18.3533 18.3733 20.2733 16.0067 20.28ZM20.44 12.5467C19.8867 12.5467 19.44 12.1 19.44 11.5467C19.44 10.9933 19.8867 10.5467 20.44 10.5467C20.9933 10.5467 21.44 10.9933 21.44 11.5467C21.44 12.1 20.9933 12.5467 20.44 12.5467Z" fill="#25CBDB"/>
<path d="M16 2.66663C8.63335 2.66663 2.66669 8.63329 2.66669 16C2.66669 23.3666 8.63335 29.3333 16 29.3333C23.3667 29.3333 29.3334 23.3666 29.3334 16C29.3334 8.63329 23.3667 2.66663 16 2.66663ZM24.2867 19.42C24.2467 20.3066 24.1067 20.9133 23.9 21.44C23.6867 21.9866 23.4067 22.4533 22.94 22.92C22.48 23.3866 22.0134 23.6666 21.4667 23.8866C20.94 24.0933 20.3334 24.2333 19.4467 24.28C18.56 24.32 18.2734 24.3333 16.0134 24.3333C13.7534 24.3333 13.4667 24.3333 12.58 24.2866C11.6934 24.2466 11.0867 24.1066 10.56 23.9C10.0134 23.6866 9.54669 23.4066 9.08002 22.94C8.61335 22.48 8.32669 22.0133 8.11335 21.4666C7.90669 20.94 7.76669 20.3333 7.72002 19.4466C7.68002 18.56 7.66669 18.2733 7.66002 16.0133C7.66002 13.7533 7.66002 13.4666 7.70669 12.58C7.74669 11.6933 7.88669 11.0866 8.09335 10.5533C8.30669 10.0066 8.58669 9.53996 9.05335 9.07329C9.51335 8.60663 9.98002 8.32663 10.5267 8.10663C11.0534 7.89996 11.66 7.75996 12.5467 7.71329C13.4334 7.67329 13.72 7.65996 15.98 7.65329C18.24 7.65329 18.5267 7.65329 19.4134 7.69996C20.3 7.73996 20.9067 7.87996 21.4334 8.08663C21.98 8.29996 22.4467 8.57996 22.9134 9.04663C23.38 9.50663 23.66 9.97329 23.88 10.52C24.0867 11.0466 24.2267 11.6533 24.2734 12.54C24.3134 13.4266 24.3267 13.7133 24.3334 15.9733C24.3334 18.2333 24.3334 18.52 24.2867 19.4066V19.42Z" fill="#25CBDB"/>
</g>
<g opacity="0.2">
<path d="M15.9933 11.72C13.6333 11.72 11.72 13.6467 11.72 16.0067C11.72 18.3667 13.6466 20.28 16.0066 20.28C18.3666 20.28 20.28 18.3534 20.28 15.9934C20.28 13.6334 18.3533 11.72 15.9933 11.72ZM16.0066 18.7734C14.4733 18.7734 13.2266 17.5334 13.2266 16C13.2266 14.4667 14.4666 13.22 16 13.22C17.5333 13.22 18.78 14.46 18.78 15.9934C18.78 17.5267 17.54 18.7734 16.0066 18.7734Z" fill="#25CBDB"/>
<path d="M20.44 10.5467C19.8866 10.5467 19.44 10.9934 19.44 11.5467C19.44 12.1 19.8866 12.5467 20.44 12.5467C20.9933 12.5467 21.44 12.1 21.44 11.5467C21.44 10.9934 20.9933 10.5467 20.44 10.5467Z" fill="#25CBDB"/>
<path d="M24.2733 12.5467C24.2333 11.66 24.0866 11.0534 23.88 10.5267C23.6666 9.98003 23.38 9.51337 22.9133 9.05337C22.4466 8.59337 21.9866 8.3067 21.4333 8.09337C20.9 7.8867 20.3 7.7467 19.4133 7.7067C18.5266 7.6667 18.24 7.66003 15.98 7.66003C13.72 7.66003 13.4333 7.67337 12.5466 7.72003C11.66 7.76003 11.0533 7.9067 10.5266 8.11337C9.97997 8.3267 9.51331 8.61337 9.05331 9.08003C8.59331 9.5467 8.30664 10.0067 8.09331 10.56C7.88664 11.0934 7.74664 11.6934 7.70664 12.5867C7.66664 13.4734 7.65997 13.76 7.65997 16.02C7.65997 18.28 7.67331 18.5667 7.71997 19.4534C7.75997 20.34 7.90664 20.9467 8.11331 21.4734C8.32664 22.02 8.61331 22.4867 9.07997 22.9467C9.54664 23.4067 10.0066 23.6934 10.56 23.9067C11.0933 24.1134 11.6933 24.2534 12.58 24.2934C13.4666 24.3334 13.7533 24.34 16.0133 24.34C18.28 24.34 18.56 24.3267 19.4466 24.2867C20.3333 24.2467 20.94 24.1 21.4666 23.8934C22.0133 23.68 22.48 23.3934 22.94 22.9267C23.4 22.46 23.6866 22 23.9 21.4467C24.1066 20.92 24.2466 20.3134 24.2866 19.4267C24.3266 18.54 24.3333 18.2534 24.3333 15.9934C24.3333 13.7334 24.32 13.4467 24.2733 12.56V12.5467ZM22.7866 19.3534C22.7533 20.1667 22.6133 20.6067 22.5 20.9C22.3466 21.2867 22.1666 21.5667 21.88 21.86C21.5866 22.1534 21.3133 22.3334 20.92 22.4867C20.6266 22.6 20.1866 22.74 19.3733 22.7734C18.4933 22.8134 18.2333 22.8267 16.0066 22.8267C13.78 22.8267 13.52 22.8267 12.64 22.7867C11.8266 22.7534 11.3866 22.6134 11.0933 22.5C10.7066 22.3467 10.4266 22.1667 10.1333 21.88C9.83997 21.5867 9.65997 21.3134 9.50664 20.92C9.39331 20.6267 9.25331 20.1867 9.21997 19.3734C9.17997 18.4934 9.16664 18.2334 9.16664 16.0067C9.16664 13.78 9.16664 13.52 9.20664 12.64C9.23997 11.8267 9.37997 11.3867 9.49331 11.0934C9.64664 10.7067 9.82664 10.4267 10.1133 10.1334C10.4066 9.84003 10.68 9.66003 11.0733 9.5067C11.3666 9.39337 11.8066 9.25337 12.62 9.22003C13.5 9.18003 13.76 9.1667 15.9866 9.1667C18.2133 9.1667 18.4733 9.1667 19.3533 9.2067C20.1666 9.24003 20.6066 9.37337 20.9 9.49337C21.2866 9.6467 21.5666 9.8267 21.86 10.1134C22.1533 10.4 22.3333 10.68 22.4866 11.0734C22.6 11.3667 22.74 11.8067 22.7733 12.62C22.8133 13.5 22.8266 13.76 22.8266 15.9867C22.8266 18.2134 22.8266 18.4734 22.7866 19.3534Z" fill="#25CBDB"/>
</g>
</svg>
