<svg width="32" height="32" viewBox="0 0 32 32" fill="none" xmlns="http://www.w3.org/2000/svg">
<g opacity="0.85">
<path d="M15.9934 13.22C14.46 13.22 13.22 14.4666 13.22 16C13.22 17.5333 14.4667 18.7733 16 18.7733C17.5334 18.7733 18.7734 17.5266 18.7734 15.9933C18.7734 14.46 17.5267 13.22 15.9934 13.22Z" fill="#222343"/>
<path d="M22.7733 12.62C22.7333 11.8067 22.6 11.3667 22.4867 11.0733C22.3333 10.6867 22.1533 10.4067 21.86 10.1133C21.5667 9.82001 21.2933 9.64001 20.9 9.49335C20.6067 9.38001 20.1667 9.24668 19.3533 9.20668C18.4733 9.16668 18.2133 9.16001 15.9867 9.16668C13.76 9.16668 13.5 9.18001 12.62 9.22001C11.8067 9.26001 11.3667 9.39335 11.0733 9.50668C10.6867 9.66001 10.4067 9.84001 10.1133 10.1333C9.82001 10.4267 9.64001 10.7 9.49335 11.0933C9.38001 11.3867 9.24668 11.8267 9.20668 12.64C9.16668 13.52 9.16001 13.78 9.16668 16.0067C9.16668 18.2333 9.18001 18.4933 9.22001 19.3733C9.26001 20.1867 9.39335 20.6267 9.50668 20.92C9.66001 21.3067 9.84001 21.5867 10.1333 21.88C10.4267 22.1733 10.7067 22.3533 11.0933 22.5C11.3867 22.6133 11.8267 22.7467 12.64 22.7867C13.52 22.8267 13.78 22.8334 16.0067 22.8267C18.2333 22.8267 18.4933 22.8133 19.3733 22.7733C20.1867 22.7333 20.6267 22.6 20.92 22.4867C21.3067 22.3333 21.5867 22.1533 21.88 21.86C22.1733 21.5667 22.3533 21.2867 22.5 20.9C22.6133 20.6067 22.7467 20.1667 22.7867 19.3533C22.8267 18.4733 22.8334 18.2133 22.8267 15.9867C22.8267 13.76 22.8133 13.5 22.7733 12.62ZM16.0067 20.28C13.6467 20.28 11.7267 18.3733 11.72 16.0067C11.72 13.6467 13.6267 11.7267 15.9933 11.72C18.3533 11.72 20.2733 13.6267 20.28 15.9933C20.28 18.3533 18.3733 20.2733 16.0067 20.28ZM20.44 12.5467C19.8867 12.5467 19.44 12.1 19.44 11.5467C19.44 10.9933 19.8867 10.5467 20.44 10.5467C20.9933 10.5467 21.44 10.9933 21.44 11.5467C21.44 12.1 20.9933 12.5467 20.44 12.5467Z" fill="#222343"/>
<path d="M16 2.66663C8.63335 2.66663 2.66669 8.63329 2.66669 16C2.66669 23.3666 8.63335 29.3333 16 29.3333C23.3667 29.3333 29.3334 23.3666 29.3334 16C29.3334 8.63329 23.3667 2.66663 16 2.66663ZM24.2867 19.42C24.2467 20.3066 24.1067 20.9133 23.9 21.44C23.6867 21.9866 23.4067 22.4533 22.94 22.92C22.48 23.3866 22.0134 23.6666 21.4667 23.8866C20.94 24.0933 20.3334 24.2333 19.4467 24.28C18.56 24.32 18.2734 24.3333 16.0134 24.3333C13.7534 24.3333 13.4667 24.3333 12.58 24.2866C11.6934 24.2466 11.0867 24.1066 10.56 23.9C10.0134 23.6866 9.54669 23.4066 9.08002 22.94C8.61335 22.48 8.32669 22.0133 8.11335 21.4666C7.90669 20.94 7.76669 20.3333 7.72002 19.4466C7.68002 18.56 7.66669 18.2733 7.66002 16.0133C7.66002 13.7533 7.66002 13.4666 7.70669 12.58C7.74669 11.6933 7.88669 11.0866 8.09335 10.5533C8.30669 10.0066 8.58669 9.53996 9.05335 9.07329C9.51335 8.60663 9.98002 8.32663 10.5267 8.10663C11.0534 7.89996 11.66 7.75996 12.5467 7.71329C13.4334 7.67329 13.72 7.65996 15.98 7.65329C18.24 7.65329 18.5267 7.65329 19.4134 7.69996C20.3 7.73996 20.9067 7.87996 21.4334 8.08663C21.98 8.29996 22.4467 8.57996 22.9134 9.04663C23.38 9.50663 23.66 9.97329 23.88 10.52C24.0867 11.0466 24.2267 11.6533 24.2734 12.54C24.3134 13.4266 24.3267 13.7133 24.3334 15.9733C24.3334 18.2333 24.3334 18.52 24.2867 19.4066V19.42Z" fill="#222343"/>
</g>
<g opacity="0.2">
<path d="M15.9934 11.72C13.6334 11.72 11.72 13.6466 11.72 16.0066C11.72 18.3666 13.6467 20.28 16.0067 20.28C18.3667 20.28 20.28 18.3533 20.28 15.9933C20.28 13.6333 18.3534 11.72 15.9934 11.72ZM16.0067 18.7733C14.4734 18.7733 13.2267 17.5333 13.2267 16C13.2267 14.4666 14.4667 13.22 16 13.22C17.5334 13.22 18.78 14.46 18.78 15.9933C18.78 17.5266 17.54 18.7733 16.0067 18.7733Z" fill="#222343"/>
<path d="M20.4401 10.5466C19.8867 10.5466 19.4401 10.9933 19.4401 11.5466C19.4401 12.1 19.8867 12.5466 20.4401 12.5466C20.9934 12.5466 21.4401 12.1 21.4401 11.5466C21.4401 10.9933 20.9934 10.5466 20.4401 10.5466Z" fill="#222343"/>
<path d="M24.2734 12.5466C24.2334 11.6599 24.0867 11.0532 23.88 10.5266C23.6667 9.97991 23.38 9.51325 22.9134 9.05325C22.4467 8.59325 21.9867 8.30658 21.4334 8.09325C20.9 7.88658 20.3 7.74658 19.4134 7.70658C18.5267 7.66658 18.24 7.65991 15.98 7.65991C13.72 7.65991 13.4334 7.67325 12.5467 7.71991C11.66 7.75991 11.0534 7.90658 10.5267 8.11325C9.98003 8.32658 9.51337 8.61325 9.05337 9.07991C8.59337 9.54658 8.3067 10.0066 8.09337 10.5599C7.8867 11.0932 7.7467 11.6932 7.7067 12.5866C7.6667 13.4732 7.66003 13.7599 7.66003 16.0199C7.66003 18.2799 7.67337 18.5666 7.72003 19.4532C7.76003 20.3399 7.9067 20.9466 8.11337 21.4732C8.3267 22.0199 8.61337 22.4866 9.08003 22.9466C9.5467 23.4066 10.0067 23.6932 10.56 23.9066C11.0934 24.1132 11.6934 24.2532 12.58 24.2932C13.4667 24.3332 13.7534 24.3399 16.0134 24.3399C18.28 24.3399 18.56 24.3266 19.4467 24.2866C20.3334 24.2466 20.94 24.0999 21.4667 23.8932C22.0134 23.6799 22.48 23.3932 22.94 22.9266C23.4 22.4599 23.6867 21.9999 23.9 21.4466C24.1067 20.9199 24.2467 20.3132 24.2867 19.4266C24.3267 18.5399 24.3334 18.2532 24.3334 15.9932C24.3334 13.7332 24.32 13.4466 24.2734 12.5599V12.5466ZM22.7867 19.3532C22.7534 20.1666 22.6134 20.6066 22.5 20.8999C22.3467 21.2866 22.1667 21.5666 21.88 21.8599C21.5867 22.1532 21.3134 22.3332 20.92 22.4866C20.6267 22.5999 20.1867 22.7399 19.3734 22.7732C18.4934 22.8132 18.2334 22.8266 16.0067 22.8266C13.78 22.8266 13.52 22.8266 12.64 22.7866C11.8267 22.7532 11.3867 22.6132 11.0934 22.4999C10.7067 22.3466 10.4267 22.1666 10.1334 21.8799C9.84003 21.5866 9.66003 21.3132 9.5067 20.9199C9.39337 20.6266 9.25337 20.1866 9.22003 19.3732C9.18003 18.4932 9.1667 18.2332 9.1667 16.0066C9.1667 13.7799 9.1667 13.5199 9.2067 12.6399C9.24003 11.8266 9.38003 11.3866 9.49337 11.0932C9.6467 10.7066 9.8267 10.4266 10.1134 10.1332C10.4067 9.83991 10.68 9.65991 11.0734 9.50658C11.3667 9.39325 11.8067 9.25325 12.62 9.21991C13.5 9.17991 13.76 9.16658 15.9867 9.16658C18.2134 9.16658 18.4734 9.16658 19.3534 9.20658C20.1667 9.23991 20.6067 9.37325 20.9 9.49325C21.2867 9.64658 21.5667 9.82658 21.86 10.1132C22.1534 10.3999 22.3334 10.6799 22.4867 11.0732C22.6 11.3666 22.74 11.8066 22.7734 12.6199C22.8134 13.4999 22.8267 13.7599 22.8267 15.9866C22.8267 18.2132 22.8267 18.4732 22.7867 19.3532Z" fill="#222343"/>
</g>
</svg>
