<svg width="32" height="32" viewBox="0 0 32 32" fill="none" xmlns="http://www.w3.org/2000/svg">
<path d="M18 17.9999C19.1133 17.9999 20.0533 17.6133 20.8333 16.8333C21.6133 16.0533 22 15.1133 22 13.9999C22 12.8866 21.6133 11.9466 20.8333 11.1666C20.0533 10.3866 19.1133 9.99992 18 9.99992C16.8867 9.99992 15.9467 10.3866 15.1667 11.1666C14.3867 11.9466 14 12.8866 14 13.9999C14 15.1133 14.3867 16.0533 15.1667 16.8333C15.9467 17.6133 16.8867 17.9999 18 17.9999ZM7.33333 22.6666C6.77999 22.6666 6.30666 22.4733 5.92 22.0799C5.53333 21.6866 5.33333 21.2199 5.33333 20.6666V7.33325C5.33333 6.77992 5.52666 6.30659 5.92 5.91992C6.31333 5.53325 6.77999 5.33325 7.33333 5.33325H28.6667C29.22 5.33325 29.6933 5.52659 30.08 5.91992C30.4667 6.31325 30.6667 6.77992 30.6667 7.33325V20.6666C30.6667 21.2199 30.4733 21.6933 30.08 22.0799C29.6867 22.4666 29.22 22.6666 28.6667 22.6666H7.33333ZM3.33333 26.6666C2.77999 26.6666 2.30666 26.4733 1.92 26.0799C1.53333 25.6866 1.33333 25.2199 1.33333 24.6666V10.3333C1.33333 10.0466 1.42666 9.80659 1.61333 9.61992C1.79999 9.43325 2.03999 9.33325 2.33333 9.33325C2.62666 9.33325 2.86 9.42659 3.04666 9.61992C3.23333 9.80659 3.33333 10.0466 3.33333 10.3333V24.6666H25.6667C25.9533 24.6666 26.1933 24.7599 26.3867 24.9466C26.58 25.1333 26.6667 25.3733 26.6667 25.6666C26.6667 25.9599 26.5733 26.1933 26.3867 26.3866C26.2 26.5799 25.96 26.6666 25.6667 26.6666H3.33333ZM7.33333 10.6666C8.26666 10.6666 9.05333 10.3466 9.7 9.69992C10.3467 9.05325 10.6667 8.26659 10.6667 7.33325H7.33333V10.6666ZM28.6667 10.6666V7.33325H25.3333C25.3333 8.26659 25.6533 9.05325 26.3 9.69992C26.9467 10.3466 27.7333 10.6666 28.6667 10.6666ZM7.33333 20.6666H10.6667C10.6667 19.7333 10.3467 18.9466 9.7 18.2999C9.05333 17.6533 8.26666 17.3333 7.33333 17.3333V20.6666ZM25.3333 20.6666H28.6667V17.3333C27.7333 17.3333 26.9467 17.6533 26.3 18.2999C25.6533 18.9466 25.3333 19.7333 25.3333 20.6666Z" fill="#222343"/>
</svg>
