<svg width="32" height="32" viewBox="0 0 32 32" fill="none" xmlns="http://www.w3.org/2000/svg">
<path opacity="0.85" fill-rule="evenodd" clip-rule="evenodd" d="M28.28 10.8001C27.58 9.18008 26.6333 7.76675 25.4333 6.56675C24.2333 5.36675 22.82 4.41341 21.2 3.71341C19.58 3.01341 17.8533 2.66675 16.0333 2.66675C14.2133 2.66675 12.4533 3.01341 10.8333 3.71341C9.21331 4.41341 7.79331 5.36675 6.57997 6.56675C5.36664 7.76675 4.41331 9.18008 3.71331 10.8001C3.01331 12.4201 2.65997 14.1467 2.65997 15.9667C2.65997 17.7867 3.01331 19.5467 3.71331 21.1667C4.41331 22.7867 5.36664 24.2067 6.57997 25.4201C7.79331 26.6334 9.20664 27.5867 10.8333 28.2867C12.4533 28.9867 14.18 29.3334 16 29.3334C17.82 29.3334 19.58 28.9867 21.2 28.2867C22.82 27.5867 24.2333 26.6334 25.4333 25.4201C26.6333 24.2067 27.58 22.7934 28.28 21.1667C28.98 19.5467 29.3333 17.8201 29.3333 16.0001C29.3333 14.1801 28.98 12.4201 28.28 10.8001ZM9.84664 11.1534C10.1933 10.8067 10.62 10.6334 11.1266 10.6334C11.6333 10.6334 12.0666 10.8067 12.4066 11.1534C12.7533 11.5001 12.9266 11.9267 12.9266 12.4334C12.9266 12.9401 12.7533 13.3734 12.4066 13.7201C12.06 14.0667 11.6333 14.2401 11.1266 14.2401C10.62 14.2401 10.1866 14.0667 9.84664 13.7201C9.50664 13.3734 9.32664 12.9467 9.32664 12.4334C9.32664 11.9201 9.49997 11.4934 9.84664 11.1534ZM22.2333 19.9001C21.5866 20.9667 20.7066 21.8001 19.58 22.4001C18.46 23.0001 17.2666 23.3001 15.9933 23.3001C14.72 23.3001 13.54 23.0001 12.4266 22.4001C11.3133 21.8001 10.44 20.9667 9.79331 19.9001C9.61331 19.6334 9.59331 19.4001 9.72664 19.2001C9.85997 19.0001 10.08 18.9001 10.3933 18.9001H21.5933C21.9066 18.9001 22.1333 19.0001 22.2733 19.2001C22.42 19.4001 22.4 19.6334 22.2266 19.9001H22.2333ZM22.1533 13.7134C21.8066 14.0601 21.38 14.2334 20.8666 14.2334C20.3533 14.2334 19.9266 14.0601 19.5866 13.7134C19.2466 13.3667 19.0733 12.9401 19.0733 12.4267C19.0733 11.9134 19.2466 11.4867 19.5866 11.1467C19.9333 10.8001 20.36 10.6267 20.8666 10.6267C21.3733 10.6267 21.8066 10.8001 22.1533 11.1467C22.5 11.4934 22.6666 11.9201 22.6666 12.4267C22.6666 12.9334 22.4933 13.3667 22.1533 13.7134Z" fill="#222343"/>
<g opacity="0.2">
<path d="M20.8666 14.2334C21.38 14.2334 21.8066 14.06 22.1533 13.7134C22.5 13.3667 22.6666 12.94 22.6666 12.4267C22.6666 11.9134 22.4933 11.4867 22.1533 11.1467C21.8066 10.8 21.38 10.6267 20.8666 10.6267C20.3533 10.6267 19.9266 10.8 19.5866 11.1467C19.24 11.4934 19.0733 11.92 19.0733 12.4267C19.0733 12.9334 19.2466 13.3667 19.5866 13.7134C19.9266 14.06 20.36 14.2334 20.8666 14.2334Z" fill="#222343"/>
<path d="M11.1333 14.2334C11.6466 14.2334 12.0733 14.06 12.4133 13.7134C12.7533 13.3667 12.9333 12.94 12.9333 12.4267C12.9333 11.9134 12.76 11.4867 12.4133 11.1467C12.0666 10.8 11.64 10.6267 11.1333 10.6267C10.6266 10.6267 10.1933 10.8 9.85331 11.1467C9.50665 11.4934 9.33331 11.92 9.33331 12.4267C9.33331 12.9334 9.50665 13.3667 9.85331 13.7134C10.2 14.06 10.6266 14.2334 11.1333 14.2334Z" fill="#222343"/>
<path d="M10.4 18.9C10.0866 18.9 9.86665 19 9.73331 19.2C9.59998 19.4 9.61998 19.6334 9.79998 19.9C10.4466 20.9667 11.32 21.8 12.4333 22.4C13.5466 23 14.7333 23.3 16 23.3C17.2666 23.3 18.46 23 19.5866 22.4C20.7066 21.8 21.5933 20.9667 22.24 19.9C22.42 19.6334 22.4333 19.4 22.2866 19.2C22.14 19 21.9133 18.9 21.6066 18.9H10.4Z" fill="#222343"/>
</g>
</svg>
