<svg width="32" height="32" viewBox="0 0 32 32" fill="none" xmlns="http://www.w3.org/2000/svg">
<path d="M16 15.6533C14.5333 15.6533 13.3333 15.1867 12.4 14.2533C11.4667 13.32 11 12.12 11 10.6533C11 9.18665 11.4667 7.98665 12.4 7.05332C13.3333 6.11999 14.5333 5.65332 16 5.65332C17.4667 5.65332 18.6667 6.11999 19.6 7.05332C20.5333 7.98665 21 9.18665 21 10.6533C21 12.12 20.5333 13.32 19.6 14.2533C18.6667 15.1867 17.4667 15.6533 16 15.6533Z" fill="#25CBDB"/>
<path opacity="0.52" d="M7.33334 26.3466C6.78001 26.3466 6.30668 26.1533 5.92001 25.7599C5.53334 25.3666 5.33334 24.8999 5.33334 24.3466V23.2133C5.33334 22.3666 5.54668 21.6466 5.96668 21.0466C6.38668 20.4466 6.93334 19.9933 7.60001 19.6799C9.08668 19.0133 10.52 18.5133 11.8867 18.1799C13.2533 17.8466 14.6267 17.6799 16 17.6799C17.3733 17.6799 18.7467 17.8533 20.1 18.1933C21.4533 18.5399 22.88 19.0333 24.3667 19.6799C25.0533 19.9933 25.6133 20.4466 26.0333 21.0466C26.4533 21.6466 26.6667 22.3666 26.6667 23.2133V24.3466C26.6667 24.8999 26.4733 25.3733 26.08 25.7599C25.6867 26.1466 25.22 26.3466 24.6667 26.3466H7.33334Z" fill="#25CBDB"/>
</svg>
