<svg width="32" height="32" viewBox="0 0 32 32" fill="none" xmlns="http://www.w3.org/2000/svg">
<path fill-rule="evenodd" clip-rule="evenodd" d="M28.5333 29.9332L24.7666 26.1998C24.3 26.5332 23.7933 26.7865 23.2466 26.9665C22.7 27.1465 22.14 27.2332 21.56 27.2332C19.98 27.2332 18.6466 26.6798 17.5466 25.5865C16.4466 24.4865 15.9 23.1465 15.9 21.5665C15.9 19.9865 16.4533 18.6465 17.5533 17.5532C18.6533 16.4532 19.9933 15.9065 21.5666 15.9065C23.14 15.9065 24.4866 16.4598 25.5866 17.5598C26.6866 18.6598 27.2333 19.9998 27.2333 21.5732C27.2333 22.1532 27.14 22.7132 26.9533 23.2598C26.7666 23.8065 26.5133 24.3198 26.2066 24.8132L29.94 28.5465C30.14 28.7465 30.2466 28.9798 30.2533 29.2465C30.2666 29.5132 30.1733 29.7465 29.9733 29.9465C29.7733 30.1465 29.5333 30.2465 29.2533 30.2465C28.9733 30.2465 28.7333 30.1465 28.54 29.9465L28.5333 29.9332ZM21.5666 25.2332C22.5866 25.2332 23.4533 24.8798 24.1666 24.1665C24.88 23.4532 25.2333 22.5865 25.2333 21.5665C25.2333 20.5465 24.88 19.6798 24.1666 18.9665C23.4533 18.2532 22.5866 17.8998 21.5666 17.8998C20.5466 17.8998 19.68 18.2532 18.9666 18.9665C18.2533 19.6798 17.9 20.5465 17.9 21.5665C17.9 22.5865 18.2533 23.4532 18.9666 24.1665C19.68 24.8798 20.5466 25.2332 21.5666 25.2332Z" fill="#25CBDB"/>
<path opacity="0.32" d="M21.5667 25.2332C23.5917 25.2332 25.2334 23.5916 25.2334 21.5666C25.2334 19.5415 23.5917 17.8999 21.5667 17.8999C19.5416 17.8999 17.9 19.5415 17.9 21.5666C17.9 23.5916 19.5416 25.2332 21.5667 25.2332Z" fill="#25CBDB"/>
<g opacity="0.85">
<path d="M2.6933 23.2465C2.5133 23.2465 2.32664 23.1998 2.16664 23.0932C1.69997 22.7998 1.5533 22.1865 1.84664 21.7132L6.87997 13.6665C7.04664 13.3998 7.3333 13.2265 7.6533 13.1998C7.9733 13.1665 8.27997 13.2998 8.48664 13.5398L11.6133 17.1532L16.08 9.87317C16.26 9.57984 16.5733 9.39984 16.9133 9.39984C17.26 9.42651 17.5733 9.55984 17.7666 9.84651L21.2266 15.0198L28.4466 3.54651C28.74 3.07984 29.36 2.93984 29.8266 3.23318C30.2933 3.52651 30.4333 4.14651 30.14 4.61318L22.1 17.3932C21.92 17.6798 21.6066 17.8532 21.2666 17.8598C20.9133 17.8398 20.6066 17.6998 20.42 17.4132L16.9733 12.2532L12.6066 19.3665C12.44 19.6398 12.1533 19.8132 11.8333 19.8398C11.5133 19.8598 11.2066 19.7398 10.9933 19.4998L7.85997 15.8732L3.54664 22.7665C3.35997 23.0732 3.0333 23.2332 2.69997 23.2332L2.6933 23.2465Z" fill="#25CBDB"/>
<path d="M21.5666 17.8998C20.1466 17.8998 18.92 18.7065 18.3133 19.8865L19.8933 22.2465C20.2666 22.7998 20.8866 23.1332 21.5533 23.1332H21.58C22.26 23.1265 22.8866 22.7732 23.2466 22.1998L24.7666 19.7798C24.14 18.6598 22.94 17.8998 21.5666 17.8998Z" fill="#25CBDB"/>
</g>
</svg>
