<svg width="32" height="32" viewBox="0 0 32 32" fill="none" xmlns="http://www.w3.org/2000/svg">
<path opacity="0.85" d="M28.28 10.8001C27.58 9.18008 26.6333 7.76675 25.4333 6.56675C24.2333 5.36675 22.82 4.41341 21.2 3.71341C19.58 3.01341 17.8533 2.66675 16.0333 2.66675C14.2133 2.66675 12.4533 3.01341 10.8333 3.71341C9.21331 4.41341 7.79331 5.36675 6.57997 6.56675C5.36664 7.76675 4.41331 9.18008 3.71331 10.8001C3.01331 12.4201 2.65997 14.1467 2.65997 15.9667C2.65997 17.7867 3.01331 19.5467 3.71331 21.1667C4.41331 22.7867 5.36664 24.2067 6.57997 25.4201C7.79331 26.6334 9.20664 27.5867 10.8333 28.2867C12.4533 28.9867 14.18 29.3334 16 29.3334C17.82 29.3334 19.58 28.9867 21.2 28.2867C22.82 27.5867 24.2333 26.6334 25.4333 25.4201C26.6333 24.2067 27.58 22.7934 28.28 21.1667C28.98 19.5467 29.3333 17.8201 29.3333 16.0001C29.3333 14.1801 28.98 12.4201 28.28 10.8001ZM9.84664 11.1534C10.1933 10.8067 10.62 10.6334 11.1266 10.6334C11.6333 10.6334 12.0666 10.8067 12.4066 11.1534C12.7466 11.5001 12.9266 11.9267 12.9266 12.4334C12.9266 12.9401 12.7533 13.3734 12.4066 13.7201C12.06 14.0667 11.6333 14.2401 11.1266 14.2401C10.62 14.2401 10.1866 14.0667 9.84664 13.7201C9.49997 13.3734 9.32664 12.9467 9.32664 12.4334C9.32664 11.9201 9.49997 11.4934 9.84664 11.1534ZM22.1933 22.1201C22.06 22.3734 21.84 22.5001 21.5266 22.5001C21.3933 22.5001 21.2466 22.4534 21.0933 22.3667C20.94 22.2801 20.8133 22.1801 20.7266 22.0667C20.1933 21.3134 19.5066 20.7334 18.6733 20.3334C17.84 19.9334 16.9533 19.7334 16.02 19.7334C15.0866 19.7334 14.1666 19.9267 13.32 20.3201C12.4733 20.7067 11.8 21.2801 11.2866 22.0334C11.2 22.1667 11.08 22.2801 10.9333 22.3667C10.7866 22.4534 10.64 22.5001 10.4866 22.5001C10.2 22.5001 9.97997 22.3667 9.83997 22.1001C9.69331 21.8334 9.73331 21.5334 9.95331 21.2001C10.5533 20.2667 11.3933 19.5134 12.4733 18.9467C13.5533 18.3801 14.7266 18.0934 15.9866 18.0934C17.2466 18.0934 18.4333 18.3801 19.52 18.9601C20.6066 19.5401 21.4733 20.3267 22.12 21.3267C22.3 21.5934 22.32 21.8534 22.1866 22.1134L22.1933 22.1201ZM22.1466 13.7201C21.8 14.0667 21.3733 14.2401 20.86 14.2401C20.3466 14.2401 19.92 14.0667 19.58 13.7201C19.2333 13.3734 19.0666 12.9467 19.0666 12.4334C19.0666 11.9201 19.24 11.4934 19.58 11.1534C19.92 10.8134 20.3533 10.6334 20.86 10.6334C21.3666 10.6334 21.8 10.8067 22.1466 11.1534C22.4933 11.5001 22.66 11.9267 22.66 12.4334C22.66 12.9401 22.4866 13.3734 22.1466 13.7201Z" fill="#25CBDB"/>
<g opacity="0.2">
<path d="M20.8666 10.6334C20.3533 10.6334 19.9266 10.8067 19.5866 11.1534C19.2466 11.5 19.0733 11.9267 19.0733 12.4334C19.0733 12.94 19.2466 13.3734 19.5866 13.72C19.9333 14.0667 20.36 14.24 20.8666 14.24C21.3733 14.24 21.8066 14.0667 22.1533 13.72C22.5 13.3734 22.6666 12.9467 22.6666 12.4334C22.6666 11.92 22.4933 11.4934 22.1533 11.1534C21.8133 10.8134 21.38 10.6334 20.8666 10.6334Z" fill="#25CBDB"/>
<path d="M11.1333 14.2334C11.6466 14.2334 12.0733 14.06 12.4133 13.7134C12.76 13.3667 12.9333 12.94 12.9333 12.4267C12.9333 11.9134 12.76 11.4867 12.4133 11.1467C12.0666 10.8067 11.64 10.6267 11.1333 10.6267C10.6266 10.6267 10.1933 10.8 9.85331 11.1467C9.51331 11.4934 9.33331 11.92 9.33331 12.4267C9.33331 12.9334 9.50665 13.3667 9.85331 13.7134C10.2 14.06 10.6266 14.2334 11.1333 14.2334Z" fill="#25CBDB"/>
<path d="M19.5333 18.9667C18.4466 18.3867 17.2666 18.1 16 18.1C14.7333 18.1 13.56 18.3867 12.4866 18.9534C11.4066 19.52 10.5666 20.2667 9.96665 21.2067C9.74665 21.54 9.70665 21.84 9.85331 22.1067C9.99998 22.3734 10.2133 22.5067 10.5 22.5067C10.6533 22.5067 10.8066 22.46 10.9466 22.3734C11.0933 22.2867 11.2066 22.1734 11.3 22.04C11.8133 21.2867 12.4866 20.7134 13.3333 20.3267C14.18 19.94 15.08 19.74 16.0333 19.74C16.9866 19.74 17.8533 19.94 18.6866 20.34C19.52 20.74 20.2 21.32 20.74 22.0734C20.8266 22.1867 20.9533 22.2867 21.1066 22.3734C21.26 22.46 21.4066 22.5067 21.54 22.5067C21.8533 22.5067 22.0733 22.38 22.2066 22.1267C22.34 21.8734 22.32 21.6067 22.14 21.34C21.4933 20.34 20.6266 19.5534 19.54 18.9734L19.5333 18.9667Z" fill="#25CBDB"/>
</g>
</svg>
