<svg width="32" height="32" viewBox="0 0 32 32" fill="none" xmlns="http://www.w3.org/2000/svg">
<path opacity="0.85" fill-rule="evenodd" clip-rule="evenodd" d="M28.28 10.8C27.58 9.18001 26.6333 7.76667 25.4333 6.56667C24.2333 5.36667 22.82 4.42001 21.2 3.72001C19.58 3.02001 17.8533 2.67334 16.0333 2.67334C14.2133 2.67334 12.4533 3.02001 10.8333 3.72001C9.21331 4.42001 7.79331 5.37334 6.57997 6.56667C5.36664 7.76667 4.41331 9.18001 3.71331 10.8C3.01331 12.42 2.65997 14.1467 2.65997 15.9667C2.65997 17.7867 3.01331 19.5467 3.71331 21.1667C4.41331 22.7867 5.36664 24.2067 6.57997 25.42C7.79331 26.6333 9.20664 27.5867 10.8333 28.2867C12.4533 28.9867 14.18 29.3333 16 29.3333C17.82 29.3333 19.58 28.98 21.2 28.2867C22.82 27.5867 24.2333 26.6333 25.4333 25.42C26.6333 24.2067 27.58 22.7933 28.28 21.1667C28.98 19.5467 29.3333 17.82 29.3333 16C29.3333 14.18 28.98 12.42 28.28 10.8ZM9.84664 11.1467C10.1933 10.8 10.62 10.6333 11.1266 10.6333C11.6333 10.6333 12.0666 10.8067 12.4066 11.1467C12.7533 11.4933 12.9266 11.92 12.9266 12.4333C12.9266 12.9467 12.7533 13.3733 12.4066 13.72C12.06 14.0667 11.6333 14.2333 11.1266 14.2333C10.62 14.2333 10.1866 14.06 9.84664 13.72C9.50664 13.38 9.32664 12.9467 9.32664 12.4333C9.32664 11.92 9.49997 11.4933 9.84664 11.1467ZM22.1266 20.0667C21.48 21.0667 20.6133 21.8533 19.5266 22.4333C18.44 23.0133 17.26 23.3 15.9933 23.3C14.7266 23.3 13.5533 23.0133 12.4733 22.4333C11.3933 21.8533 10.5533 21.1 9.95997 20.1667C9.73997 19.8333 9.69997 19.54 9.84664 19.2867C9.99331 19.0333 10.2066 18.9 10.4933 18.9C10.6466 18.9 10.8 18.9467 10.94 19.0333C11.08 19.12 11.2 19.2333 11.2933 19.3667C11.8066 20.12 12.48 20.6933 13.3266 21.08C14.1733 21.4667 15.0733 21.6667 16.0266 21.6667C16.98 21.6667 17.8466 21.4667 18.68 21.0667C19.5133 20.6667 20.1933 20.0867 20.7266 19.3333C20.8133 19.22 20.94 19.12 21.0933 19.0333C21.2466 18.9467 21.3933 18.9 21.5266 18.9C21.84 18.9 22.06 19.0267 22.1933 19.2867C22.3266 19.5467 22.3066 19.8 22.1266 20.0667ZM22.14 13.72C21.7933 14.0667 21.3666 14.2333 20.86 14.2333C20.3533 14.2333 19.92 14.06 19.58 13.72C19.24 13.38 19.06 12.9467 19.06 12.4333C19.06 11.92 19.2333 11.4933 19.58 11.1467C19.9266 10.8 20.3533 10.6333 20.86 10.6333C21.3666 10.6333 21.8 10.8067 22.14 11.1467C22.4866 11.4933 22.66 11.92 22.66 12.4333C22.66 12.9467 22.4866 13.3733 22.14 13.72Z" fill="#222343"/>
<g opacity="0.2">
<path d="M20.8666 10.6333C20.3533 10.6333 19.9266 10.8066 19.5866 11.1466C19.24 11.4933 19.0666 11.92 19.0666 12.4333C19.0666 12.9466 19.24 13.3733 19.5866 13.72C19.9333 14.0666 20.36 14.2333 20.8666 14.2333C21.3733 14.2333 21.8066 14.06 22.1466 13.72C22.4866 13.38 22.6666 12.9466 22.6666 12.4333C22.6666 11.92 22.4933 11.4933 22.1466 11.1466C21.8 10.8 21.3733 10.6333 20.8666 10.6333Z" fill="#222343"/>
<path d="M11.1333 14.2333C11.6466 14.2333 12.0733 14.06 12.4133 13.72C12.7533 13.38 12.9333 12.9466 12.9333 12.4333C12.9333 11.92 12.76 11.4933 12.4133 11.1466C12.0666 10.8 11.64 10.6333 11.1333 10.6333C10.6266 10.6333 10.1933 10.8066 9.85331 11.1466C9.50665 11.4933 9.33331 11.92 9.33331 12.4333C9.33331 12.9466 9.50665 13.3733 9.85331 13.72C10.2 14.0666 10.6266 14.2333 11.1333 14.2333Z" fill="#222343"/>
<path d="M21.5333 18.9C21.4 18.9 21.2533 18.9466 21.1 19.0333C20.9466 19.12 20.82 19.22 20.7333 19.3333C20.2 20.0866 19.52 20.6666 18.6866 21.0666C17.8533 21.4666 16.9666 21.6666 16.0333 21.6666C15.1 21.6666 14.18 21.4733 13.3333 21.08C12.4866 20.6933 11.8133 20.12 11.3 19.3666C11.2133 19.2333 11.0933 19.12 10.9466 19.0333C10.8 18.9466 10.6533 18.9 10.5 18.9C10.2133 18.9 9.99331 19.0266 9.85331 19.2866C9.70665 19.54 9.74665 19.8333 9.96665 20.1666C10.5666 21.1 11.4066 21.8533 12.48 22.4333C13.56 23.0133 14.7333 23.3 16 23.3C17.2666 23.3 18.4466 23.0133 19.5333 22.4333C20.62 21.8533 21.4866 21.0666 22.1333 20.0666C22.3133 19.8 22.3333 19.54 22.2 19.2866C22.0666 19.0333 21.8466 18.9 21.5333 18.9Z" fill="#222343"/>
</g>
</svg>
