<svg width="32" height="32" viewBox="0 0 32 32" fill="none" xmlns="http://www.w3.org/2000/svg">
<path opacity="0.85" fill-rule="evenodd" clip-rule="evenodd" d="M28.28 10.8001C27.58 9.18008 26.6333 7.76675 25.4333 6.56675C24.2333 5.36675 22.82 4.41341 21.2 3.71341C19.58 3.01341 17.8466 2.66675 16 2.66675C14.1533 2.66675 12.4533 3.01341 10.8333 3.71341C9.21331 4.41341 7.79331 5.36675 6.57997 6.56675C5.36664 7.76675 4.41331 9.18008 3.71331 10.8001C3.01331 12.4201 2.65997 14.1534 2.65997 16.0001C2.65997 17.8467 3.01331 19.5467 3.71331 21.1667C4.41331 22.7867 5.36664 24.2067 6.57997 25.4201C7.79331 26.6334 9.20664 27.5867 10.8333 28.2867C12.4533 28.9867 14.18 29.3334 16 29.3334C17.82 29.3334 19.58 28.9867 21.2 28.2867C22.82 27.5867 24.2333 26.6334 25.4333 25.4201C26.6333 24.2067 27.58 22.7934 28.28 21.1667C28.98 19.5467 29.3333 17.8201 29.3333 16.0001C29.3333 14.1801 28.98 12.4201 28.28 10.8001ZM9.19997 13.0334C9.19997 12.8134 9.28664 12.6134 9.46664 12.4334L10.8666 11.0334C10.98 10.9201 11.0866 10.8467 11.2 10.8001C11.3133 10.7534 11.4333 10.7334 11.5666 10.7334C11.7 10.7334 11.82 10.7534 11.9333 10.8001C12.0466 10.8467 12.1533 10.9201 12.2666 11.0334L13.6666 12.4334C13.8466 12.6134 13.9333 12.8134 13.9333 13.0334C13.9333 13.2534 13.8466 13.4534 13.6666 13.6334C13.4866 13.8134 13.2866 13.9001 13.0666 13.9001C12.8466 13.9001 12.6466 13.8134 12.4666 13.6334L11.5666 12.7334L10.6666 13.6334C10.4866 13.8134 10.2866 13.9001 10.0666 13.9001C9.84664 13.9001 9.64664 13.8134 9.46664 13.6334C9.28664 13.4534 9.19997 13.2534 9.19997 13.0334ZM22.2333 19.9001C21.5866 20.9667 20.7066 21.8001 19.58 22.4001C18.46 23.0001 17.2666 23.3001 15.9933 23.3001C14.72 23.3001 13.54 23.0001 12.4266 22.4001C11.3133 21.8001 10.44 20.9667 9.79331 19.9001C9.61331 19.6334 9.59331 19.4001 9.72664 19.2001C9.85997 19.0001 10.08 18.9001 10.3933 18.9001H21.5933C21.9066 18.9001 22.1333 19.0001 22.2733 19.2001C22.42 19.4001 22.4 19.6334 22.2266 19.9001H22.2333ZM22.5666 13.6334C22.3866 13.8134 22.1866 13.9001 21.9666 13.9001C21.7466 13.9001 21.5466 13.8134 21.3666 13.6334L20.4666 12.7334L19.5666 13.6334C19.3866 13.8134 19.1866 13.9001 18.9666 13.9001C18.7466 13.9001 18.5466 13.8134 18.3666 13.6334C18.1866 13.4534 18.1 13.2534 18.1 13.0334C18.1 12.8134 18.1866 12.6134 18.3666 12.4334L19.7666 11.0334C19.88 10.9201 19.9866 10.8467 20.1 10.8001C20.2133 10.7534 20.3333 10.7334 20.4666 10.7334C20.6 10.7334 20.72 10.7534 20.8333 10.8001C20.9466 10.8467 21.0533 10.9201 21.1666 11.0334L22.5666 12.4334C22.7466 12.6134 22.8333 12.8134 22.8333 13.0334C22.8333 13.2534 22.7466 13.4534 22.5666 13.6334Z" fill="#222343"/>
<g opacity="0.2">
<path d="M10.6667 13.6334L11.5667 12.7334L12.4667 13.6334C12.6467 13.8134 12.8467 13.9001 13.0667 13.9001C13.2867 13.9001 13.4867 13.8134 13.6667 13.6334C13.8467 13.4534 13.9333 13.2534 13.9333 13.0334C13.9333 12.8134 13.8467 12.6134 13.6667 12.4334L12.2667 11.0334C12.1533 10.9201 12.0467 10.8467 11.9333 10.8001C11.82 10.7534 11.7 10.7334 11.5667 10.7334C11.4333 10.7334 11.3133 10.7534 11.2 10.8001C11.0867 10.8467 10.98 10.9201 10.8667 11.0334L9.46668 12.4334C9.28668 12.6134 9.20001 12.8134 9.20001 13.0334C9.20001 13.2534 9.28668 13.4534 9.46668 13.6334C9.64668 13.8134 9.84668 13.9001 10.0667 13.9001C10.2867 13.9001 10.4867 13.8134 10.6667 13.6334Z" fill="#222343"/>
<path d="M22.5667 12.4334L21.1667 11.0334C21.0533 10.9201 20.9467 10.8467 20.8333 10.8001C20.72 10.7534 20.6 10.7334 20.4667 10.7334C20.3333 10.7334 20.2133 10.7534 20.1 10.8001C19.9867 10.8467 19.88 10.9201 19.7667 11.0334L18.3667 12.4334C18.1867 12.6134 18.1 12.8134 18.1 13.0334C18.1 13.2534 18.1867 13.4534 18.3667 13.6334C18.5467 13.8134 18.7467 13.9001 18.9667 13.9001C19.1867 13.9001 19.3867 13.8134 19.5667 13.6334L20.4667 12.7334L21.3667 13.6334C21.5467 13.8134 21.7467 13.9001 21.9667 13.9001C22.1867 13.9001 22.3867 13.8134 22.5667 13.6334C22.7467 13.4534 22.8333 13.2534 22.8333 13.0334C22.8333 12.8134 22.7467 12.6134 22.5667 12.4334Z" fill="#222343"/>
<path d="M10.4 18.9001C10.0867 18.9001 9.86668 19.0001 9.73335 19.2001C9.60001 19.4001 9.62001 19.6334 9.80001 19.9001C10.4467 20.9667 11.32 21.8001 12.4333 22.4001C13.5467 23.0001 14.7333 23.3001 16 23.3001C17.2667 23.3001 18.46 23.0001 19.5867 22.4001C20.7067 21.8001 21.5933 20.9667 22.24 19.9001C22.42 19.6334 22.4333 19.4001 22.2867 19.2001C22.14 19.0001 21.9133 18.9001 21.6067 18.9001H10.4Z" fill="#222343"/>
</g>
</svg>
