<svg width="32" height="32" viewBox="0 0 32 32" fill="none" xmlns="http://www.w3.org/2000/svg">
<path d="M8.66667 30.6666C8.13334 30.6666 7.66667 30.4666 7.26667 30.0666C6.86667 29.6666 6.66667 29.1999 6.66667 28.6666V3.33325C6.66667 2.79992 6.86667 2.33325 7.26667 1.93325C7.66667 1.53325 8.13334 1.33325 8.66667 1.33325H23.3333C23.8667 1.33325 24.3333 1.53325 24.7333 1.93325C25.1333 2.33325 25.3333 2.79992 25.3333 3.33325V28.6666C25.3333 29.1999 25.1333 29.6666 24.7333 30.0666C24.3333 30.4666 23.8667 30.6666 23.3333 30.6666H8.66667ZM8.66667 25.6666H23.3333V6.33325H8.66667V25.6666Z" fill="#222343"/>
</svg>
