<svg width="32" height="32" viewBox="0 0 32 32" fill="none" xmlns="http://www.w3.org/2000/svg">
<path opacity="0.32" d="M6.5 26.6668C6.12 26.6668 5.75333 26.5735 5.38 26.3868C5.01333 26.2001 4.74 25.9268 4.56666 25.5735C3.98666 24.5068 3.54666 23.4201 3.23333 22.3201C2.92 21.2201 2.76666 20.0468 2.76666 18.8068C2.76666 16.9601 3.12 15.2201 3.82 13.5935C4.52 11.9668 5.47333 10.5401 6.67333 9.32679C7.87333 8.11346 9.28 7.15346 10.8933 6.44679C12.5067 5.73346 14.22 5.38013 16.0467 5.38013C17.8733 5.38013 19.58 5.73346 21.18 6.44679C22.78 7.16013 24.18 8.12013 25.38 9.32679C26.58 10.5401 27.5267 11.9601 28.2333 13.5935C28.9333 15.2268 29.2867 16.9668 29.2867 18.8068C29.2867 20.0535 29.14 21.2401 28.8533 22.3735C28.5667 23.5068 28.12 24.5735 27.52 25.5735C27.2533 26.0868 26.9667 26.3935 26.6667 26.5068C26.3667 26.6201 25.9933 26.6735 25.5533 26.6735H6.5V26.6668Z" fill="#25CBDB"/>
<path d="M14.0333 20.6669C14.5667 21.2002 15.2533 21.4602 16.1 21.4469C16.9467 21.4336 17.5667 21.1269 17.9667 20.5269L23.9667 11.4936C24.12 11.2469 24.1067 11.0336 23.9133 10.8402C23.7267 10.6536 23.5067 10.6336 23.2667 10.7869L14.2333 16.7869C13.6333 17.1869 13.3133 17.8002 13.2867 18.6202C13.26 19.4402 13.5067 20.1202 14.0333 20.6536V20.6669Z" fill="#25CBDB"/>
<path d="M16.0333 7.36677C17.5667 7.36677 19.02 7.66677 20.3533 8.26011C20.78 8.45344 21.1933 8.66011 21.5933 8.89344C22.0733 9.18011 22.6933 9.02677 22.9733 8.54011C23.2467 8.06677 23.0933 7.45344 22.62 7.17344C22.1467 6.89344 21.6733 6.65344 21.1667 6.42677C19.5667 5.71344 17.8533 5.36011 16.0333 5.36011C14.2133 5.36011 12.4933 5.71344 10.8867 6.42677C9.27333 7.14011 7.87333 8.10011 6.66666 9.31344C5.46666 10.5268 4.51333 11.9468 3.82 13.5801C3.12666 15.2134 2.76666 16.9534 2.76666 18.7934C2.76666 20.0401 2.92 21.2068 3.23333 22.3134C3.54666 23.4134 3.98666 24.4934 4.56666 25.5668C4.74666 25.9201 5.01333 26.1934 5.38666 26.3801C5.75333 26.5668 6.12666 26.6668 6.5 26.6668H25.5333C25.98 26.6668 26.3467 26.6134 26.6467 26.5001C26.9467 26.3868 27.2333 26.0801 27.5 25.5668C28.1 24.5668 28.5467 23.5001 28.8333 22.3668C29.12 21.2334 29.2667 20.0468 29.2667 18.8001C29.2667 16.9534 28.92 15.2134 28.22 13.5868C28.0467 13.1868 27.86 12.7934 27.66 12.4201C27.38 11.9001 26.72 11.7334 26.2267 12.0534C25.7933 12.3334 25.6467 12.9001 25.8933 13.3534C26.0733 13.6801 26.2333 14.0201 26.3867 14.3734C26.9733 15.7468 27.2733 17.2401 27.2733 18.8001C27.2733 19.8734 27.1467 20.9068 26.9 21.8734C26.66 22.8134 26.2867 23.7068 25.7867 24.5401L25.7533 24.5934L25.7267 24.6468C25.7267 24.6468 25.72 24.6601 25.7133 24.6668C25.66 24.6668 25.6 24.6668 25.5333 24.6668H6.5C6.5 24.6668 6.42666 24.6668 6.32666 24.6201C5.82 23.6801 5.42666 22.7268 5.16 21.7734C4.9 20.8534 4.76666 19.8534 4.76666 18.8001C4.76666 17.2334 5.06666 15.7468 5.65333 14.3734C6.25333 12.9801 7.06666 11.7534 8.08666 10.7268C9.10666 9.70011 10.3133 8.87344 11.6933 8.26677C13.04 7.67344 14.5 7.37344 16.0333 7.37344" fill="#25CBDB"/>
</svg>
