<svg width="32" height="32" viewBox="0 0 32 32" fill="none" xmlns="http://www.w3.org/2000/svg">
<path opacity="0.52" d="M15.9999 2.66998C8.63992 2.66998 2.66992 8.63998 2.66992 16C2.66992 23.36 8.63992 29.33 15.9999 29.33C23.3599 29.33 29.3299 23.36 29.3299 16C29.3299 8.63998 23.3599 2.66998 15.9999 2.66998ZM22.9599 14.59C21.5399 14.59 20.2199 14.14 19.1499 13.37V18.92C19.1499 20.87 18.0299 22.57 16.4099 23.41C15.7199 23.77 14.9399 23.97 14.1099 23.97C11.3299 23.97 9.05992 21.71 9.05992 18.92C9.05992 16.13 11.3199 13.87 14.1099 13.87C14.3399 13.87 14.5799 13.89 14.7999 13.92V16.72C14.5799 16.65 14.3499 16.61 14.1099 16.61C12.8399 16.61 11.8099 17.64 11.8099 18.91C11.8099 20.18 12.8399 21.21 14.1099 21.21C15.3799 21.21 16.4099 20.18 16.4099 18.91V8.01998H19.1499C19.1499 10.13 20.8599 11.83 22.9599 11.83V14.58V14.59Z" fill="#25CBDB"/>
<path d="M19.1498 8.03003H16.4098V18.92C16.4098 20.19 15.3798 21.22 14.1098 21.22C12.8398 21.22 11.8098 20.19 11.8098 18.92C11.8098 17.65 12.8398 16.62 14.1098 16.62C14.3498 16.62 14.5798 16.66 14.7998 16.73V13.93C14.5698 13.9 14.3398 13.88 14.1098 13.88C11.3298 13.88 9.05981 16.14 9.05981 18.93C9.05981 21.72 11.3198 23.98 14.1098 23.98C14.9398 23.98 15.7198 23.78 16.4098 23.42C18.0398 22.58 19.1498 20.88 19.1498 18.93V13.38C20.2198 14.15 21.5398 14.6 22.9598 14.6V11.85C20.8598 11.85 19.1498 10.14 19.1498 8.04003V8.03003Z" fill="#222343"/>
</svg>
